<?xml version="1.0" encoding="UTF-8" ?>
<svg version="1.1" width="600" height="600" xmlns="http://www.w3.org/2000/svg" shape-rendering="crispEdges">
<rect x="32" y="14" width="128" height="34" fill="#F8DBEA" />
<rect x="440" y="14" width="128" height="34" fill="#F8DBEA" />
<rect x="160" y="15" width="80" height="33" fill="#F8DBEA" />
<rect x="360" y="15" width="80" height="33" fill="#F8DBEA" />
<rect x="240" y="16" width="120" height="32" fill="#F8DBEA" />
<rect x="32" y="48" width="32" height="322" fill="#F8DBEA" />
<rect x="64" y="48" width="472" height="30" fill="#CFA8C3" />
<rect x="536" y="48" width="32" height="322" fill="#F8DBEA" />
<rect x="64" y="78" width="30" height="120" fill="#CFA8C3" />
<rect x="94" y="78" width="412" height="91" fill="#FFFFFF" />
<rect x="506" y="78" width="30" height="120" fill="#CFA8C3" />
<rect x="31" y="133" width="1" height="237" fill="#F8DBEA" />
<rect x="568" y="133" width="1" height="237" fill="#F8DBEA" />
<rect x="94" y="169" width="1" height="151" fill="#CFA8C3" />
<rect x="95" y="169" width="410" height="120" fill="#FFFFFF" />
<rect x="505" y="169" width="1" height="151" fill="#CFA8C3" />
<rect x="64" y="198" width="1" height="172" fill="#F8DBEA" />
<rect x="65" y="198" width="29" height="122" fill="#CFA8C3" />
<rect x="506" y="198" width="29" height="122" fill="#CFA8C3" />
<rect x="535" y="198" width="1" height="172" fill="#F8DBEA" />
<rect x="30" y="218" width="1" height="152" fill="#F8DBEA" />
<rect x="569" y="218" width="1" height="152" fill="#F8DBEA" />
<rect x="95" y="289" width="410" height="30" fill="#CFA8C3" />
<rect x="95" y="319" width="410" height="7" fill="#F8DBEA" />
<rect x="65" y="320" width="30" height="50" fill="#F8DBEA" />
<rect x="505" y="320" width="30" height="6" fill="#F8DBEA" />
<rect x="95" y="326" width="361" height="26" fill="#F8DBEA" />
<rect x="456" y="326" width="15" height="5" fill="#CFA8C3" />
<rect x="471" y="326" width="9" height="27" fill="#F8DBEA" />
<rect x="480" y="326" width="55" height="5" fill="#CFA8C3" />
<rect x="456" y="331" width="5" height="8" fill="#CFA8C3" />
<rect x="461" y="331" width="5" height="3" fill="#F8DBEA" />
<rect x="466" y="331" width="5" height="8" fill="#CFA8C3" />
<rect x="480" y="331" width="5" height="8" fill="#CFA8C3" />
<rect x="485" y="331" width="45" height="3" fill="#F8DBEA" />
<rect x="530" y="331" width="5" height="8" fill="#CFA8C3" />
<rect x="461" y="334" width="5" height="5" fill="#CFA8C3" />
<rect x="485" y="334" width="45" height="5" fill="#CFA8C3" />
<rect x="456" y="339" width="15" height="14" fill="#F8DBEA" />
<rect x="480" y="339" width="55" height="14" fill="#F8DBEA" />
<rect x="95" y="352" width="82" height="1" fill="#F8DBEA" />
<rect x="177" y="352" width="246" height="16" fill="#CFA8C3" />
<rect x="423" y="352" width="33" height="1" fill="#F8DBEA" />
<rect x="95" y="353" width="18" height="17" fill="#F8DBEA" />
<rect x="113" y="353" width="64" height="15" fill="#CFA8C3" />
<rect x="423" y="353" width="64" height="15" fill="#CFA8C3" />
<rect x="487" y="353" width="48" height="17" fill="#F8DBEA" />
<rect x="113" y="368" width="1" height="2" fill="#F8DBEA" />
<rect x="255" y="368" width="90" height="94" fill="#F8DBEA" />
<rect x="486" y="368" width="1" height="2" fill="#F8DBEA" />
<rect x="27" y="458" width="52" height="15" fill="#CFA8C3" />
<rect x="117" y="458" width="1" height="2" fill="#F8DBEA" />
<rect x="118" y="458" width="32" height="15" fill="#CFA8C3" />
<rect x="450" y="458" width="32" height="15" fill="#CFA8C3" />
<rect x="482" y="458" width="1" height="2" fill="#F8DBEA" />
<rect x="521" y="458" width="52" height="15" fill="#CFA8C3" />
<rect x="150" y="459" width="18" height="15" fill="#CFA8C3" />
<rect x="432" y="459" width="18" height="15" fill="#CFA8C3" />
<rect x="26" y="460" width="1" height="51" fill="#CFA8C3" />
<rect x="79" y="460" width="1" height="51" fill="#CFA8C3" />
<rect x="117" y="460" width="1" height="51" fill="#CFA8C3" />
<rect x="195" y="460" width="37" height="15" fill="#CFA8C3" />
<rect x="368" y="460" width="37" height="15" fill="#CFA8C3" />
<rect x="482" y="460" width="1" height="51" fill="#CFA8C3" />
<rect x="520" y="460" width="1" height="51" fill="#CFA8C3" />
<rect x="573" y="460" width="1" height="51" fill="#CFA8C3" />
<rect x="25" y="461" width="1" height="50" fill="#CFA8C3" />
<rect x="232" y="461" width="23" height="15" fill="#CFA8C3" />
<rect x="345" y="461" width="23" height="15" fill="#CFA8C3" />
<rect x="574" y="461" width="1" height="50" fill="#CFA8C3" />
<rect x="80" y="462" width="1" height="49" fill="#CFA8C3" />
<rect x="168" y="462" width="1" height="49" fill="#CFA8C3" />
<rect x="255" y="462" width="90" height="14" fill="#CFA8C3" />
<rect x="431" y="462" width="1" height="49" fill="#CFA8C3" />
<rect x="519" y="462" width="1" height="49" fill="#CFA8C3" />
<rect x="24" y="463" width="1" height="48" fill="#CFA8C3" />
<rect x="116" y="463" width="1" height="48" fill="#CFA8C3" />
<rect x="194" y="463" width="1" height="48" fill="#CFA8C3" />
<rect x="405" y="463" width="1" height="48" fill="#CFA8C3" />
<rect x="483" y="463" width="1" height="48" fill="#CFA8C3" />
<rect x="575" y="463" width="1" height="48" fill="#CFA8C3" />
<rect x="23" y="464" width="1" height="47" fill="#CFA8C3" />
<rect x="81" y="464" width="1" height="47" fill="#CFA8C3" />
<rect x="169" y="464" width="1" height="47" fill="#CFA8C3" />
<rect x="430" y="464" width="1" height="47" fill="#CFA8C3" />
<rect x="518" y="464" width="1" height="47" fill="#CFA8C3" />
<rect x="576" y="464" width="1" height="47" fill="#CFA8C3" />
<rect x="115" y="465" width="1" height="46" fill="#CFA8C3" />
<rect x="193" y="465" width="1" height="46" fill="#CFA8C3" />
<rect x="406" y="465" width="1" height="46" fill="#CFA8C3" />
<rect x="484" y="465" width="1" height="46" fill="#CFA8C3" />
<rect x="22" y="466" width="1" height="45" fill="#CFA8C3" />
<rect x="82" y="466" width="1" height="45" fill="#CFA8C3" />
<rect x="170" y="466" width="1" height="45" fill="#CFA8C3" />
<rect x="429" y="466" width="1" height="45" fill="#CFA8C3" />
<rect x="517" y="466" width="1" height="45" fill="#CFA8C3" />
<rect x="577" y="466" width="1" height="45" fill="#CFA8C3" />
<rect x="114" y="467" width="1" height="44" fill="#CFA8C3" />
<rect x="485" y="467" width="1" height="44" fill="#CFA8C3" />
<rect x="21" y="468" width="1" height="43" fill="#CFA8C3" />
<rect x="83" y="468" width="1" height="43" fill="#CFA8C3" />
<rect x="113" y="468" width="1" height="43" fill="#CFA8C3" />
<rect x="171" y="468" width="1" height="43" fill="#CFA8C3" />
<rect x="192" y="468" width="1" height="43" fill="#CFA8C3" />
<rect x="407" y="468" width="1" height="43" fill="#CFA8C3" />
<rect x="428" y="468" width="1" height="43" fill="#CFA8C3" />
<rect x="486" y="468" width="1" height="43" fill="#CFA8C3" />
<rect x="516" y="468" width="1" height="43" fill="#CFA8C3" />
<rect x="578" y="468" width="1" height="43" fill="#CFA8C3" />
<rect x="20" y="469" width="1" height="42" fill="#CFA8C3" />
<rect x="579" y="469" width="1" height="42" fill="#CFA8C3" />
<rect x="84" y="470" width="1" height="41" fill="#CFA8C3" />
<rect x="112" y="470" width="1" height="41" fill="#CFA8C3" />
<rect x="172" y="470" width="1" height="41" fill="#CFA8C3" />
<rect x="191" y="470" width="1" height="41" fill="#CFA8C3" />
<rect x="408" y="470" width="1" height="41" fill="#CFA8C3" />
<rect x="427" y="470" width="1" height="41" fill="#CFA8C3" />
<rect x="487" y="470" width="1" height="41" fill="#CFA8C3" />
<rect x="515" y="470" width="1" height="41" fill="#CFA8C3" />
<rect x="19" y="471" width="1" height="40" fill="#CFA8C3" />
<rect x="85" y="471" width="1" height="40" fill="#CFA8C3" />
<rect x="111" y="471" width="1" height="40" fill="#CFA8C3" />
<rect x="488" y="471" width="1" height="40" fill="#CFA8C3" />
<rect x="514" y="471" width="1" height="40" fill="#CFA8C3" />
<rect x="580" y="471" width="1" height="40" fill="#CFA8C3" />
<rect x="18" y="472" width="1" height="39" fill="#CFA8C3" />
<rect x="173" y="472" width="1" height="39" fill="#CFA8C3" />
<rect x="426" y="472" width="1" height="39" fill="#CFA8C3" />
<rect x="581" y="472" width="1" height="39" fill="#CFA8C3" />
<rect x="27" y="473" width="14" height="2" fill="#CFA8C3" />
<rect x="41" y="473" width="23" height="23" fill="#F8DBEA" />
<rect x="64" y="473" width="15" height="1" fill="#CFA8C3" />
<rect x="86" y="473" width="1" height="38" fill="#CFA8C3" />
<rect x="110" y="473" width="1" height="38" fill="#CFA8C3" />
<rect x="118" y="473" width="15" height="1" fill="#CFA8C3" />
<rect x="133" y="473" width="3" height="23" fill="#F8DBEA" />
<rect x="136" y="473" width="14" height="1" fill="#CFA8C3" />
<rect x="190" y="473" width="1" height="38" fill="#CFA8C3" />
<rect x="409" y="473" width="1" height="38" fill="#CFA8C3" />
<rect x="450" y="473" width="14" height="1" fill="#CFA8C3" />
<rect x="464" y="473" width="3" height="23" fill="#F8DBEA" />
<rect x="467" y="473" width="15" height="1" fill="#CFA8C3" />
<rect x="489" y="473" width="1" height="38" fill="#CFA8C3" />
<rect x="513" y="473" width="1" height="38" fill="#CFA8C3" />
<rect x="521" y="473" width="15" height="1" fill="#CFA8C3" />
<rect x="536" y="473" width="23" height="23" fill="#F8DBEA" />
<rect x="559" y="473" width="14" height="2" fill="#CFA8C3" />
<rect x="17" y="474" width="1" height="37" fill="#CFA8C3" />
<rect x="64" y="474" width="1" height="22" fill="#F8DBEA" />
<rect x="65" y="474" width="14" height="2" fill="#CFA8C3" />
<rect x="118" y="474" width="14" height="2" fill="#CFA8C3" />
<rect x="132" y="474" width="1" height="22" fill="#F8DBEA" />
<rect x="136" y="474" width="17" height="22" fill="#F8DBEA" />
<rect x="153" y="474" width="15" height="2" fill="#CFA8C3" />
<rect x="174" y="474" width="1" height="37" fill="#CFA8C3" />
<rect x="425" y="474" width="1" height="37" fill="#CFA8C3" />
<rect x="432" y="474" width="15" height="2" fill="#CFA8C3" />
<rect x="447" y="474" width="17" height="22" fill="#F8DBEA" />
<rect x="467" y="474" width="1" height="22" fill="#F8DBEA" />
<rect x="468" y="474" width="14" height="2" fill="#CFA8C3" />
<rect x="521" y="474" width="14" height="2" fill="#CFA8C3" />
<rect x="535" y="474" width="1" height="22" fill="#F8DBEA" />
<rect x="582" y="474" width="1" height="37" fill="#CFA8C3" />
<rect x="16" y="475" width="1" height="36" fill="#CFA8C3" />
<rect x="27" y="475" width="13" height="2" fill="#CFA8C3" />
<rect x="40" y="475" width="1" height="21" fill="#F8DBEA" />
<rect x="87" y="475" width="1" height="36" fill="#CFA8C3" />
<rect x="109" y="475" width="1" height="36" fill="#CFA8C3" />
<rect x="189" y="475" width="1" height="36" fill="#CFA8C3" />
<rect x="195" y="475" width="15" height="2" fill="#CFA8C3" />
<rect x="210" y="475" width="8" height="21" fill="#F8DBEA" />
<rect x="218" y="475" width="14" height="1" fill="#CFA8C3" />
<rect x="368" y="475" width="14" height="1" fill="#CFA8C3" />
<rect x="382" y="475" width="8" height="21" fill="#F8DBEA" />
<rect x="390" y="475" width="15" height="2" fill="#CFA8C3" />
<rect x="410" y="475" width="1" height="36" fill="#CFA8C3" />
<rect x="490" y="475" width="1" height="36" fill="#CFA8C3" />
<rect x="512" y="475" width="1" height="36" fill="#CFA8C3" />
<rect x="559" y="475" width="1" height="21" fill="#F8DBEA" />
<rect x="560" y="475" width="13" height="2" fill="#CFA8C3" />
<rect x="583" y="475" width="1" height="36" fill="#CFA8C3" />
<rect x="65" y="476" width="1" height="20" fill="#F8DBEA" />
<rect x="66" y="476" width="13" height="2" fill="#CFA8C3" />
<rect x="108" y="476" width="1" height="35" fill="#CFA8C3" />
<rect x="118" y="476" width="13" height="2" fill="#CFA8C3" />
<rect x="131" y="476" width="1" height="20" fill="#F8DBEA" />
<rect x="153" y="476" width="1" height="20" fill="#F8DBEA" />
<rect x="154" y="476" width="14" height="2" fill="#CFA8C3" />
<rect x="175" y="476" width="1" height="35" fill="#CFA8C3" />
<rect x="218" y="476" width="45" height="20" fill="#F8DBEA" />
<rect x="263" y="476" width="74" height="1" fill="#CFA8C3" />
<rect x="337" y="476" width="45" height="20" fill="#F8DBEA" />
<rect x="424" y="476" width="1" height="35" fill="#CFA8C3" />
<rect x="432" y="476" width="14" height="2" fill="#CFA8C3" />
<rect x="446" y="476" width="1" height="20" fill="#F8DBEA" />
<rect x="468" y="476" width="1" height="20" fill="#F8DBEA" />
<rect x="469" y="476" width="13" height="2" fill="#CFA8C3" />
<rect x="491" y="476" width="1" height="35" fill="#CFA8C3" />
<rect x="521" y="476" width="13" height="2" fill="#CFA8C3" />
<rect x="534" y="476" width="1" height="20" fill="#F8DBEA" />
<rect x="15" y="477" width="1" height="34" fill="#CFA8C3" />
<rect x="27" y="477" width="12" height="1" fill="#CFA8C3" />
<rect x="39" y="477" width="1" height="19" fill="#F8DBEA" />
<rect x="88" y="477" width="1" height="34" fill="#CFA8C3" />
<rect x="195" y="477" width="14" height="2" fill="#CFA8C3" />
<rect x="209" y="477" width="1" height="19" fill="#F8DBEA" />
<rect x="263" y="477" width="74" height="19" fill="#F8DBEA" />
<rect x="390" y="477" width="1" height="19" fill="#F8DBEA" />
<rect x="391" y="477" width="14" height="2" fill="#CFA8C3" />
<rect x="511" y="477" width="1" height="34" fill="#CFA8C3" />
<rect x="560" y="477" width="1" height="19" fill="#F8DBEA" />
<rect x="561" y="477" width="12" height="1" fill="#CFA8C3" />
<rect x="584" y="477" width="1" height="34" fill="#CFA8C3" />
<rect x="14" y="478" width="1" height="33" fill="#CFA8C3" />
<rect x="27" y="478" width="11" height="2" fill="#CFA8C3" />
<rect x="38" y="478" width="1" height="18" fill="#F8DBEA" />
<rect x="66" y="478" width="1" height="18" fill="#F8DBEA" />
<rect x="67" y="478" width="12" height="2" fill="#CFA8C3" />
<rect x="107" y="478" width="1" height="33" fill="#CFA8C3" />
<rect x="118" y="478" width="12" height="2" fill="#CFA8C3" />
<rect x="130" y="478" width="1" height="18" fill="#F8DBEA" />
<rect x="154" y="478" width="1" height="18" fill="#F8DBEA" />
<rect x="155" y="478" width="13" height="2" fill="#CFA8C3" />
<rect x="176" y="478" width="1" height="33" fill="#CFA8C3" />
<rect x="188" y="478" width="1" height="33" fill="#CFA8C3" />
<rect x="411" y="478" width="1" height="33" fill="#CFA8C3" />
<rect x="423" y="478" width="1" height="33" fill="#CFA8C3" />
<rect x="432" y="478" width="13" height="2" fill="#CFA8C3" />
<rect x="445" y="478" width="1" height="18" fill="#F8DBEA" />
<rect x="469" y="478" width="1" height="18" fill="#F8DBEA" />
<rect x="470" y="478" width="12" height="2" fill="#CFA8C3" />
<rect x="492" y="478" width="1" height="33" fill="#CFA8C3" />
<rect x="521" y="478" width="12" height="2" fill="#CFA8C3" />
<rect x="533" y="478" width="1" height="18" fill="#F8DBEA" />
<rect x="561" y="478" width="1" height="18" fill="#F8DBEA" />
<rect x="562" y="478" width="11" height="2" fill="#CFA8C3" />
<rect x="585" y="478" width="1" height="33" fill="#CFA8C3" />
<rect x="195" y="479" width="13" height="3" fill="#CFA8C3" />
<rect x="208" y="479" width="1" height="17" fill="#F8DBEA" />
<rect x="391" y="479" width="1" height="17" fill="#F8DBEA" />
<rect x="392" y="479" width="13" height="3" fill="#CFA8C3" />
<rect x="13" y="480" width="1" height="31" fill="#CFA8C3" />
<rect x="27" y="480" width="10" height="2" fill="#CFA8C3" />
<rect x="37" y="480" width="1" height="16" fill="#F8DBEA" />
<rect x="67" y="480" width="1" height="16" fill="#F8DBEA" />
<rect x="68" y="480" width="11" height="2" fill="#CFA8C3" />
<rect x="89" y="480" width="1" height="31" fill="#CFA8C3" />
<rect x="106" y="480" width="1" height="31" fill="#CFA8C3" />
<rect x="118" y="480" width="11" height="2" fill="#CFA8C3" />
<rect x="129" y="480" width="1" height="16" fill="#F8DBEA" />
<rect x="155" y="480" width="1" height="16" fill="#F8DBEA" />
<rect x="156" y="480" width="12" height="2" fill="#CFA8C3" />
<rect x="177" y="480" width="1" height="31" fill="#CFA8C3" />
<rect x="187" y="480" width="1" height="31" fill="#CFA8C3" />
<rect x="412" y="480" width="1" height="31" fill="#CFA8C3" />
<rect x="422" y="480" width="1" height="31" fill="#CFA8C3" />
<rect x="432" y="480" width="12" height="2" fill="#CFA8C3" />
<rect x="444" y="480" width="1" height="16" fill="#F8DBEA" />
<rect x="470" y="480" width="1" height="16" fill="#F8DBEA" />
<rect x="471" y="480" width="11" height="2" fill="#CFA8C3" />
<rect x="493" y="480" width="1" height="31" fill="#CFA8C3" />
<rect x="510" y="480" width="1" height="31" fill="#CFA8C3" />
<rect x="521" y="480" width="11" height="2" fill="#CFA8C3" />
<rect x="532" y="480" width="1" height="16" fill="#F8DBEA" />
<rect x="562" y="480" width="1" height="16" fill="#F8DBEA" />
<rect x="563" y="480" width="10" height="2" fill="#CFA8C3" />
<rect x="586" y="480" width="1" height="31" fill="#CFA8C3" />
<rect x="12" y="482" width="1" height="29" fill="#CFA8C3" />
<rect x="27" y="482" width="9" height="1" fill="#CFA8C3" />
<rect x="36" y="482" width="1" height="14" fill="#F8DBEA" />
<rect x="68" y="482" width="1" height="14" fill="#F8DBEA" />
<rect x="69" y="482" width="10" height="2" fill="#CFA8C3" />
<rect x="90" y="482" width="1" height="29" fill="#CFA8C3" />
<rect x="105" y="482" width="1" height="29" fill="#CFA8C3" />
<rect x="118" y="482" width="10" height="1" fill="#CFA8C3" />
<rect x="128" y="482" width="1" height="14" fill="#F8DBEA" />
<rect x="156" y="482" width="1" height="14" fill="#F8DBEA" />
<rect x="157" y="482" width="11" height="2" fill="#CFA8C3" />
<rect x="178" y="482" width="1" height="29" fill="#CFA8C3" />
<rect x="195" y="482" width="12" height="2" fill="#CFA8C3" />
<rect x="207" y="482" width="1" height="14" fill="#F8DBEA" />
<rect x="392" y="482" width="1" height="14" fill="#F8DBEA" />
<rect x="393" y="482" width="12" height="2" fill="#CFA8C3" />
<rect x="421" y="482" width="1" height="29" fill="#CFA8C3" />
<rect x="432" y="482" width="11" height="2" fill="#CFA8C3" />
<rect x="443" y="482" width="1" height="14" fill="#F8DBEA" />
<rect x="471" y="482" width="1" height="14" fill="#F8DBEA" />
<rect x="472" y="482" width="10" height="1" fill="#CFA8C3" />
<rect x="494" y="482" width="1" height="29" fill="#CFA8C3" />
<rect x="509" y="482" width="1" height="29" fill="#CFA8C3" />
<rect x="521" y="482" width="10" height="2" fill="#CFA8C3" />
<rect x="531" y="482" width="1" height="14" fill="#F8DBEA" />
<rect x="563" y="482" width="1" height="14" fill="#F8DBEA" />
<rect x="564" y="482" width="9" height="1" fill="#CFA8C3" />
<rect x="587" y="482" width="1" height="29" fill="#CFA8C3" />
<rect x="11" y="483" width="1" height="28" fill="#CFA8C3" />
<rect x="27" y="483" width="8" height="2" fill="#CFA8C3" />
<rect x="35" y="483" width="1" height="13" fill="#F8DBEA" />
<rect x="118" y="483" width="9" height="2" fill="#CFA8C3" />
<rect x="127" y="483" width="1" height="13" fill="#F8DBEA" />
<rect x="186" y="483" width="1" height="28" fill="#CFA8C3" />
<rect x="413" y="483" width="1" height="28" fill="#CFA8C3" />
<rect x="472" y="483" width="1" height="13" fill="#F8DBEA" />
<rect x="473" y="483" width="9" height="2" fill="#CFA8C3" />
<rect x="564" y="483" width="1" height="13" fill="#F8DBEA" />
<rect x="565" y="483" width="8" height="2" fill="#CFA8C3" />
<rect x="588" y="483" width="1" height="28" fill="#CFA8C3" />
<rect x="69" y="484" width="1" height="12" fill="#F8DBEA" />
<rect x="70" y="484" width="9" height="1" fill="#CFA8C3" />
<rect x="91" y="484" width="1" height="27" fill="#CFA8C3" />
<rect x="104" y="484" width="1" height="27" fill="#CFA8C3" />
<rect x="157" y="484" width="1" height="12" fill="#F8DBEA" />
<rect x="158" y="484" width="10" height="2" fill="#CFA8C3" />
<rect x="195" y="484" width="11" height="3" fill="#CFA8C3" />
<rect x="206" y="484" width="1" height="12" fill="#F8DBEA" />
<rect x="393" y="484" width="1" height="12" fill="#F8DBEA" />
<rect x="394" y="484" width="11" height="3" fill="#CFA8C3" />
<rect x="432" y="484" width="10" height="2" fill="#CFA8C3" />
<rect x="442" y="484" width="1" height="12" fill="#F8DBEA" />
<rect x="495" y="484" width="1" height="27" fill="#CFA8C3" />
<rect x="508" y="484" width="1" height="27" fill="#CFA8C3" />
<rect x="521" y="484" width="9" height="1" fill="#CFA8C3" />
<rect x="530" y="484" width="1" height="12" fill="#F8DBEA" />
<rect x="10" y="485" width="1" height="26" fill="#CFA8C3" />
<rect x="27" y="485" width="7" height="1" fill="#CFA8C3" />
<rect x="34" y="485" width="1" height="11" fill="#F8DBEA" />
<rect x="70" y="485" width="1" height="11" fill="#F8DBEA" />
<rect x="71" y="485" width="8" height="2" fill="#CFA8C3" />
<rect x="118" y="485" width="8" height="2" fill="#CFA8C3" />
<rect x="126" y="485" width="1" height="11" fill="#F8DBEA" />
<rect x="185" y="485" width="1" height="26" fill="#CFA8C3" />
<rect x="414" y="485" width="1" height="26" fill="#CFA8C3" />
<rect x="473" y="485" width="1" height="11" fill="#F8DBEA" />
<rect x="474" y="485" width="8" height="2" fill="#CFA8C3" />
<rect x="521" y="485" width="8" height="2" fill="#CFA8C3" />
<rect x="529" y="485" width="1" height="11" fill="#F8DBEA" />
<rect x="565" y="485" width="1" height="11" fill="#F8DBEA" />
<rect x="566" y="485" width="7" height="1" fill="#CFA8C3" />
<rect x="589" y="485" width="1" height="26" fill="#CFA8C3" />
<rect x="27" y="486" width="6" height="2" fill="#CFA8C3" />
<rect x="33" y="486" width="1" height="10" fill="#F8DBEA" />
<rect x="158" y="486" width="1" height="10" fill="#F8DBEA" />
<rect x="159" y="486" width="9" height="2" fill="#CFA8C3" />
<rect x="432" y="486" width="9" height="2" fill="#CFA8C3" />
<rect x="441" y="486" width="1" height="10" fill="#F8DBEA" />
<rect x="566" y="486" width="1" height="10" fill="#F8DBEA" />
<rect x="567" y="486" width="6" height="2" fill="#CFA8C3" />
<rect x="71" y="487" width="1" height="9" fill="#F8DBEA" />
<rect x="72" y="487" width="7" height="2" fill="#CFA8C3" />
<rect x="118" y="487" width="7" height="2" fill="#CFA8C3" />
<rect x="125" y="487" width="1" height="9" fill="#F8DBEA" />
<rect x="195" y="487" width="10" height="2" fill="#CFA8C3" />
<rect x="205" y="487" width="1" height="9" fill="#F8DBEA" />
<rect x="394" y="487" width="1" height="9" fill="#F8DBEA" />
<rect x="395" y="487" width="10" height="2" fill="#CFA8C3" />
<rect x="474" y="487" width="1" height="9" fill="#F8DBEA" />
<rect x="475" y="487" width="7" height="2" fill="#CFA8C3" />
<rect x="521" y="487" width="7" height="2" fill="#CFA8C3" />
<rect x="528" y="487" width="1" height="9" fill="#F8DBEA" />
<rect x="27" y="488" width="5" height="1" fill="#CFA8C3" />
<rect x="32" y="488" width="1" height="8" fill="#F8DBEA" />
<rect x="159" y="488" width="1" height="8" fill="#F8DBEA" />
<rect x="160" y="488" width="8" height="2" fill="#CFA8C3" />
<rect x="432" y="488" width="8" height="2" fill="#CFA8C3" />
<rect x="440" y="488" width="1" height="8" fill="#F8DBEA" />
<rect x="567" y="488" width="1" height="8" fill="#F8DBEA" />
<rect x="568" y="488" width="5" height="1" fill="#CFA8C3" />
<rect x="27" y="489" width="4" height="2" fill="#CFA8C3" />
<rect x="31" y="489" width="1" height="7" fill="#F8DBEA" />
<rect x="72" y="489" width="1" height="7" fill="#F8DBEA" />
<rect x="73" y="489" width="6" height="2" fill="#CFA8C3" />
<rect x="118" y="489" width="6" height="1" fill="#CFA8C3" />
<rect x="124" y="489" width="1" height="7" fill="#F8DBEA" />
<rect x="195" y="489" width="9" height="3" fill="#CFA8C3" />
<rect x="204" y="489" width="1" height="7" fill="#F8DBEA" />
<rect x="395" y="489" width="1" height="7" fill="#F8DBEA" />
<rect x="396" y="489" width="9" height="3" fill="#CFA8C3" />
<rect x="475" y="489" width="1" height="7" fill="#F8DBEA" />
<rect x="476" y="489" width="6" height="1" fill="#CFA8C3" />
<rect x="521" y="489" width="6" height="2" fill="#CFA8C3" />
<rect x="527" y="489" width="1" height="7" fill="#F8DBEA" />
<rect x="568" y="489" width="1" height="7" fill="#F8DBEA" />
<rect x="569" y="489" width="4" height="2" fill="#CFA8C3" />
<rect x="118" y="490" width="5" height="2" fill="#CFA8C3" />
<rect x="123" y="490" width="1" height="6" fill="#F8DBEA" />
<rect x="160" y="490" width="1" height="6" fill="#F8DBEA" />
<rect x="161" y="490" width="7" height="2" fill="#CFA8C3" />
<rect x="432" y="490" width="7" height="2" fill="#CFA8C3" />
<rect x="439" y="490" width="1" height="6" fill="#F8DBEA" />
<rect x="476" y="490" width="1" height="6" fill="#F8DBEA" />
<rect x="477" y="490" width="5" height="2" fill="#CFA8C3" />
<rect x="27" y="491" width="3" height="1" fill="#CFA8C3" />
<rect x="30" y="491" width="1" height="5" fill="#F8DBEA" />
<rect x="73" y="491" width="1" height="5" fill="#F8DBEA" />
<rect x="74" y="491" width="5" height="2" fill="#CFA8C3" />
<rect x="521" y="491" width="5" height="2" fill="#CFA8C3" />
<rect x="526" y="491" width="1" height="5" fill="#F8DBEA" />
<rect x="569" y="491" width="1" height="5" fill="#F8DBEA" />
<rect x="570" y="491" width="3" height="1" fill="#CFA8C3" />
<rect x="27" y="492" width="2" height="2" fill="#CFA8C3" />
<rect x="29" y="492" width="1" height="4" fill="#F8DBEA" />
<rect x="118" y="492" width="4" height="2" fill="#CFA8C3" />
<rect x="122" y="492" width="1" height="4" fill="#F8DBEA" />
<rect x="161" y="492" width="1" height="4" fill="#F8DBEA" />
<rect x="162" y="492" width="6" height="2" fill="#CFA8C3" />
<rect x="195" y="492" width="8" height="2" fill="#CFA8C3" />
<rect x="203" y="492" width="1" height="4" fill="#F8DBEA" />
<rect x="396" y="492" width="1" height="4" fill="#F8DBEA" />
<rect x="397" y="492" width="8" height="2" fill="#CFA8C3" />
<rect x="432" y="492" width="6" height="2" fill="#CFA8C3" />
<rect x="438" y="492" width="1" height="4" fill="#F8DBEA" />
<rect x="477" y="492" width="1" height="4" fill="#F8DBEA" />
<rect x="478" y="492" width="4" height="2" fill="#CFA8C3" />
<rect x="570" y="492" width="1" height="4" fill="#F8DBEA" />
<rect x="571" y="492" width="2" height="2" fill="#CFA8C3" />
<rect x="74" y="493" width="1" height="3" fill="#F8DBEA" />
<rect x="75" y="493" width="4" height="2" fill="#CFA8C3" />
<rect x="521" y="493" width="4" height="2" fill="#CFA8C3" />
<rect x="525" y="493" width="1" height="3" fill="#F8DBEA" />
<rect x="27" y="494" width="1" height="17" fill="#CFA8C3" />
<rect x="28" y="494" width="1" height="2" fill="#F8DBEA" />
<rect x="118" y="494" width="3" height="17" fill="#CFA8C3" />
<rect x="121" y="494" width="1" height="2" fill="#F8DBEA" />
<rect x="162" y="494" width="1" height="2" fill="#F8DBEA" />
<rect x="163" y="494" width="5" height="17" fill="#CFA8C3" />
<rect x="195" y="494" width="7" height="17" fill="#CFA8C3" />
<rect x="202" y="494" width="1" height="2" fill="#F8DBEA" />
<rect x="397" y="494" width="1" height="2" fill="#F8DBEA" />
<rect x="398" y="494" width="7" height="17" fill="#CFA8C3" />
<rect x="432" y="494" width="5" height="17" fill="#CFA8C3" />
<rect x="437" y="494" width="1" height="2" fill="#F8DBEA" />
<rect x="478" y="494" width="1" height="2" fill="#F8DBEA" />
<rect x="479" y="494" width="3" height="17" fill="#CFA8C3" />
<rect x="571" y="494" width="1" height="2" fill="#F8DBEA" />
<rect x="572" y="494" width="1" height="17" fill="#CFA8C3" />
<rect x="75" y="495" width="1" height="1" fill="#F8DBEA" />
<rect x="76" y="495" width="3" height="16" fill="#CFA8C3" />
<rect x="521" y="495" width="3" height="16" fill="#CFA8C3" />
<rect x="524" y="495" width="1" height="1" fill="#F8DBEA" />
<rect x="0" y="496" width="10" height="15" fill="#CFA8C3" />
<rect x="28" y="496" width="48" height="15" fill="#CFA8C3" />
<rect x="92" y="496" width="12" height="15" fill="#CFA8C3" />
<rect x="121" y="496" width="42" height="15" fill="#CFA8C3" />
<rect x="179" y="496" width="6" height="15" fill="#CFA8C3" />
<rect x="202" y="496" width="196" height="15" fill="#CFA8C3" />
<rect x="415" y="496" width="6" height="15" fill="#CFA8C3" />
<rect x="437" y="496" width="42" height="15" fill="#CFA8C3" />
<rect x="496" y="496" width="12" height="15" fill="#CFA8C3" />
<rect x="524" y="496" width="48" height="15" fill="#CFA8C3" />
<rect x="590" y="496" width="10" height="15" fill="#CFA8C3" />
<rect x="0" y="511" width="600" height="45" fill="#F8DBEA" />
<rect x="0" y="556" width="294" height="1" fill="#F8DBEA" />
<rect x="306" y="556" width="294" height="1" fill="#F8DBEA" />
<rect x="0" y="557" width="234" height="1" fill="#F8DBEA" />
<rect x="366" y="557" width="234" height="1" fill="#F8DBEA" />
<rect x="0" y="558" width="175" height="1" fill="#F8DBEA" />
<rect x="425" y="558" width="175" height="1" fill="#F8DBEA" />
<rect x="0" y="559" width="115" height="1" fill="#F8DBEA" />
<rect x="485" y="559" width="115" height="1" fill="#F8DBEA" />
</svg>